<svg xmlns="http://www.w3.org/2000/svg" viewBox="0 0 96 96" fill="none" role="img" aria-labelledby="title desc">
  <title id="title">Aerospace Engineering</title>
  <desc id="desc">Original line icon showing a rocket and orbital path.</desc>
  <path d="M48 10c9.8 6.6 16.6 17.4 17.8 31.1l12.5 8.3c2.3 1.5 3.2 4.4 2.1 6.9l-4.1 9.2-12.2-4.8c-2.8 5.6-6.8 10.7-11.9 15H43.8c-5.1-4.3-9.1-9.4-11.9-15l-12.2 4.8-4.1-9.2c-1.1-2.5-.2-5.4 2.1-6.9l12.5-8.3C31.4 27.4 38.2 16.6 48 10Z" stroke="#0d6efd" stroke-width="4" stroke-linejoin="round"/>
  <path d="M48 10v65.7" stroke="#0b1220" stroke-width="4" stroke-linecap="round"/>
  <path d="M39.5 84c2.3-2.9 5.1-4.4 8.5-4.4s6.2 1.5 8.5 4.4" stroke="#0b1220" stroke-width="4" stroke-linecap="round"/>
  <circle cx="48" cy="38" r="8" stroke="#0b1220" stroke-width="4"/>
  <path d="M21 26c-5.4 6.1-8.6 13.9-8.6 22.4 0 19.2 16 34.8 35.6 34.8s35.6-15.6 35.6-34.8c0-8.5-3.2-16.3-8.6-22.4" stroke="#0d6efd" stroke-width="3" stroke-linecap="round" stroke-dasharray="7 8"/>
</svg>
