<svg xmlns="http://www.w3.org/2000/svg" viewBox="0 0 96 96" fill="none" role="img" aria-labelledby="title">
  <title id="title">Creative Ideas</title>
  <path d="M48 18c-13.25 0-22 10.5-22 21 0 7.5 3.8 13.5 9.5 17.2V62a2 2 0 0 0 2 2h21a2 2 0 0 0 2-2v-5.8C66.2 52.5 70 46.5 70 39c0-10.5-8.75-21-22-21Z" stroke="#6b7280" stroke-width="3.5" stroke-linejoin="round"/>
  <line x1="40" y1="70" x2="56" y2="70" stroke="#6b7280" stroke-width="3.5" stroke-linecap="round"/>
  <line x1="42" y1="78" x2="54" y2="78" stroke="#6b7280" stroke-width="3.5" stroke-linecap="round"/>
  <line x1="48" y1="18" x2="48" y2="10" stroke="#6b7280" stroke-width="3" stroke-linecap="round"/>
  <line x1="22" y1="39" x2="14" y2="39" stroke="#6b7280" stroke-width="3" stroke-linecap="round"/>
  <line x1="82" y1="39" x2="74" y2="39" stroke="#6b7280" stroke-width="3" stroke-linecap="round"/>
  <line x1="28.5" y1="24.5" x2="22.8" y2="18.8" stroke="#6b7280" stroke-width="3" stroke-linecap="round"/>
  <line x1="67.5" y1="24.5" x2="73.2" y2="18.8" stroke="#6b7280" stroke-width="3" stroke-linecap="round"/>
</svg>
