<svg xmlns="http://www.w3.org/2000/svg" viewBox="0 0 96 96" fill="none" role="img" aria-labelledby="title">
  <title id="title">Super Safety</title>
  <path d="M48 10L18 24v24c0 20 13.5 38.5 30 44 16.5-5.5 30-24 30-44V24L48 10Z" stroke="#ffffff" stroke-width="3.5" stroke-linejoin="round" fill="rgba(255,255,255,0.08)"/>
  <path d="M48 10L18 24v24c0 20 13.5 38.5 30 44C64.5 86.5 78 68 78 48V24L48 10Z" fill="rgba(255,255,255,0.06)"/>
  <path d="M34 28v16c0 8.5 6 16.5 14 19.5C56 60.5 62 52.5 62 44V28l-14-6-14 6Z" stroke="#ffffff" stroke-width="2.5" stroke-linejoin="round" fill="rgba(255,255,255,0.1)"/>
  <path d="M40 46l6 6 10-12" stroke="#ffffff" stroke-width="3.5" stroke-linecap="round" stroke-linejoin="round"/>
</svg>
